<?xml version="1.0" encoding="utf-8"?>
<!-- Generator: Adobe Illustrator 28.0.0, SVG Export Plug-In . SVG Version: 6.00 Build 0)  -->
<svg version="1.1" id="Layer_1" xmlns="http://www.w3.org/2000/svg" xmlns:xlink="http://www.w3.org/1999/xlink" x="0px" y="0px"
	 viewBox="0 0 4000 3500" style="enable-background:new 0 0 4000 3500;" xml:space="preserve">
<style type="text/css">
	.st0{fill:#A47854;}
	.st1{fill:#FCB119;}
	.st2{fill:#ECA952;}
	.st3{fill:#B4835D;}
	.st4{fill:#A37A42;}
	.st5{fill:#A3A05D;}
	.st6{fill:#D28F56;}
</style>
<symbol  id="Maple_Leaf" viewBox="-36.55 -35.52 73.1 70.72">
	<path class="st0" d="M-7.38-8c-0.9-0.72-10.72-13.58-13.06-18.54c-2.34-4.96-4.94-6.82-4.53-7.52c0.41-0.7,1.89-2.08,2.08-1.12
		c0.19,0.96,2.95,6.67,4.85,10.62C-16.14-20.63-7.32-8.91-6.53-7.69C-5.75-6.47-7.38-8-7.38-8z"/>
	<path class="st1" d="M-8.89,35.2c-0.04-0.65-0.65-3.5-0.9-3.86c-0.26-0.37-0.14,0.78-0.4,0.41c-0.26-0.37-0.21-1.49-0.57-2.19
		c-0.35-0.71-0.2,0.69-0.43,0.16c-0.23-0.52-0.42-2.57-0.67-2.94c-0.26-0.37-0.2,1.09-0.33,0.5c-0.13-0.59-0.41-2.17-0.66-2.54
		c-0.25-0.37-0.92,0.64-0.81,0.01c0.11-0.62,0.31-2.12,0.01-2.73L-14,19.95c-0.2-0.29-0.62,0.38-0.84-0.15
		c-0.22-0.52-0.25-2.23-0.46-2.9c-0.12-0.39-0.87,0.05-0.98-0.38c-0.24-0.94,0.38-2.68,0.33-3.78c-0.01-0.3-0.79,0.07-0.78-0.23
		c0-2.32,0.44-4.57,1.33-5.61c2.25-2.65,2.13-5.97,2.13-5.97s-3.95,4.74-7.24,7.41c-0.54,0.44-2.16,2.4-2.64,2.7
		c-0.35,0.21,0.2-0.98-0.39-0.56c-1.08,0.77-2.33,1.67-2.93,1.94c-0.52,0.24,0.5-1.02-0.05-0.77c-0.37,0.17-0.75,0.34-1.15,0.53
		c-0.51,0.24-2.34,2.1-2.83,2.35c-0.34,0.18,0.12-0.86-0.2-0.68c-0.33,0.19-1.53,1.68-1.84,1.89c-0.1,0.07,0.15-1-0.13-0.74
		c-0.6,0.58-1.01,1.4-1.21,1.55c-0.8,0.63-0.16-1.25-0.49-0.71c-0.83,1.35-2.16,1.59-2.16,1.59s0.29-1.56,0.93-2.41
		c0.39-0.51-0.82-0.03-0.62-0.76c0.07-0.26,0.72-1.16,1.19-1.85c0.24-0.36-0.67,0.11-0.62-0.03c0.32-0.97,0.93-1.34,1.36-1.95
		c0.14-0.2-0.52-0.28-0.32-0.59c0.18-0.27,2.06-2.28,2.29-2.62c0.28-0.42-0.99,0.19-0.65-0.28c0.59-0.83,2.05-1.79,2.31-2.16
		c0.48-0.68-0.89-0.34-0.36-1.02c0.25-0.32,2.39-1.67,2.65-1.97c1.76-2.06,3.81-3.36,5.69-3.89c3.98-1.12,7.4-2.67,7.4-2.67
		s-2.53,1.07-5.78-0.49c-0.39-0.19-2.37-0.32-2.8-0.57c-0.47-0.27,0.41-0.45,0.01-0.61c-0.29-0.11-1.57,0.52-1.87,0.41
		c-0.24-0.09,0.38-0.31,0.14-0.39c-0.34-0.12-1.44-0.06-1.77-0.17c-0.16-0.06,0.49-0.62,0.15-0.71C-27.64-7.4-28.3-7.24-28.5-7.3
		c-0.32-0.11,0.2-0.36-0.08-0.31c-0.9,0.17-1.74-0.35-1.74-0.35s0.67-0.6,1.48-0.73c0.41-0.07-0.44-0.34-0.03-0.61
		c0.36-0.24,1.26-0.41,1.66-0.58c0.4-0.17-0.41-0.6,0.01-0.64c0.31-0.03,1.82-0.1,2.2-0.22c0.22-0.07-0.08-0.53,0.16-0.62
		c0.26-0.09,1.43,0.13,1.7,0.02c0.37-0.14-0.64-0.35-0.23-0.5c0.5-0.19,1.83-0.18,2.36-0.35c1.83-0.56,3.78-0.88,5.36-0.21
		c3.47,1.48,5.33,2.3,6.69,1.9c1.36-0.4-0.18-4.78-0.18-4.78c-0.04-0.92-0.21-2.18-0.09-3.32c0.04-0.36-0.33-1.11-0.28-1.46
		c0.04-0.29,0.49-0.18,0.54-0.46c0.13-0.76,0.27-1.45,0.42-1.98c0.06-0.23,0.48,0.3,0.56,0.03c0.23-0.73,0.19-2.34,0.53-2.82
		c0.21-0.3,0.38,0,0.65-0.29c0.15-0.16,0.54-0.75,0.7-0.91c0.2-0.2,0.16,0.6,0.39,0.4c0.45-0.4,1.34-2.85,1.52-2.62
		c0.75,0.98-0.12,2.26,0.27,2.94c0.08,0.14,0.38-0.28,0.47-0.12c0.11,0.2,0.36,1.39,0.46,1.58c0.21,0.39,0.72-0.62,0.84-0.19
		c0.12,0.43-0.47,1.5-0.54,2.17c-0.03,0.25,0.54,0.09,0.49,0.33c-0.08,0.47-0.13,0.99-0.16,1.54c-0.02,0.26,0.51-0.26,0.5,0
		c-0.02,0.27-0.57,1.33-0.59,1.6c-0.07,1.09-0.21,2.08-0.64,2.65c-0.85,1.13,2.58-5.32,6.47-6.38c0.34-0.09,1.79-1.83,2.17-2.02
		c0.59-0.3,0.33,2.55,1.03,1.47c0.78-1.18,2.97-2.64,3.52-2.78c0.5-0.13-0.18,1.36,0.35,1.18c0.74-0.25,2.19-1.8,2.91-2.01
		c0.46-0.13-0.81,2.65,0.07,1.49c0.37-0.48,3.78-2.19,4.36-2.28c0.63-0.09-0.71,1.24,0.32,1.01c0.37-0.08,2.51-1.79,2.92-1.88
		c0.52-0.11-0.6,1.47-0.03,1.36c0.51-0.1,2.21-1.55,2.7-1.59c0.43-0.03-0.55,1.63-0.15,1.68c0.4,0.04,2.29-1.2,2.63-1.07
		c0.71,0.28-1.44,1.48-2.02,2.35c-0.21,0.31,1.95-0.12,1.61,0.23c-0.34,0.35-3,0.96-3.42,1.33c-0.43,0.37,1.82,0.47,1.38,0.82
		c-0.29,0.23-3.04,0.65-3.34,0.86c-0.51,0.36,1.05,0.39,0.67,0.76c-0.38,0.37-2.69,1.1-3.29,1.36c-0.25,0.11,0.51,0.78,0.06,1.07
		c-0.5,0.32-2.07,0.74-2.88,0.76c-1.34,0.03,1.39,0.59,0.91,0.92c-1.29,0.89-3.85,1.32-4.33,1.43c-1.63,0.38,1.81,0.59,1.35,0.96
		c-0.45,0.35-2.3,1.82-2.72,2.15c-1.51,1.21-2.85,1.47-3.38,1.81C5.1-10.08,1.1-8.19,0.11-8.05c-0.99,0.14,13.39-1.1,18.33,0.92
		c1.18,0.48,3.05,0.91,3.72,1.57c0.54,0.53-0.75,1.48-0.21,1.96c0.21,0.18,2.22,0,2.93,0.3c0.39,0.16,0.04,0.84,0.35,0.98
		c0.25,0.12,1.17-0.28,1.26-0.2c0.63,0.62-0.87,0.76-0.25,1.29c0.27,0.23,2.41,0.58,3.31,1.12c0.5,0.3-1.41,1.31-0.14,0.96
		c0.42-0.12,1.48,0.53,1.88,0.79c0.39,0.25-0.7,0.43-0.12,0.8c0.5,0.32,2.71,0.55,3.19,0.86c0.42,0.27-0.77,0.58-0.38,0.83
		c1.7,1.1,2.58,1.57,2.58,1.57s-1.13,0.05-3.86-0.35c-0.36-0.05-0.08,0.82-0.45,0.77c-0.34-0.05-2.42-1.21-2.76-1.25
		c-0.59-0.07,0.57,0.83,0,0.78c-0.52-0.05-1.7-0.84-2.17-0.87c-1.14-0.05-0.54,0.68-1.14,0.85c-0.38,0.11-2.72-1.04-3.4-1.02
		c-0.48,0.01,1.47,1.82,0.89,1.79c-0.11,0-1.09-0.23-1.47-0.56c-0.32-0.27-0.18,0.71-0.48,0.46c-0.29-0.24-2.65-1.93-2.75-1.94
		c-0.78-0.06-0.46,1.26-1.26,1.15C17,5.4,15.57,4.43,14.87,4.29c-3.02-0.59-5.8-1.5-7.21-2.6C4.7-0.62,3.77-0.79,3.77-0.79
		s3.65,3.39,6.89,6.95c0.8,0.88,1.45,1.58,2.14,2.43c0.35,0.43,0.8,1.04,1.1,1.44c0.31,0.42-1.23,0.17-0.99,0.54
		c0.27,0.43,3.32,2.96,3.47,3.32c0.28,0.66-1.75-0.47-1.4,0.56c0.12,0.37,2.2,2.39,2.33,2.78c0.12,0.37-0.93-0.34-0.82,0.04
		c0.2,0.7,0.95,1.43,1.12,2.1c0.03,0.11-0.54-0.13-0.32,0.4c0.24,0.58,1.14,1.76,1.17,1.88c0.19,0.81-0.68-0.51-0.49,0.26
		c0.08,0.33,0.86,1.86,0.94,2.18c0.18,0.72-0.72-0.36-0.54,0.25c0.11,0.37,1.23,1.78,1.33,2.08c0.18,0.52-0.65,0.29-0.47,0.61
		c0.16,0.29,1.3,1.28,1.42,1.61c0.14,0.38-0.83-0.39-0.74,0c0.37,1.58,0.84,3.73,0.84,3.73s-1.14-1.26-2.46-2.51
		c-0.17-0.16-0.17,0.51-0.36,0.34c-0.34-0.32-0.87-1.49-1.24-1.84c-0.29-0.27-0.27,0.32-0.58,0.04c-0.26-0.24-0.74-1.57-1.01-1.81
		c-0.48-0.43,0.01,0.85-0.47,0.44c-0.15-0.13-1.28-1.97-1.43-2.09c-0.49-0.41-0.26,0.81-0.72,0.45c-0.27-0.21-0.99-1.34-1.41-1.83
		c-0.26-0.3-0.12,0.76-0.27,0.66c-0.48-0.34-1.33-2.19-1.71-2.4c-0.31-0.17-0.39,0.39-0.74,0.15c-0.39-0.26-1.21-0.8-1.47-1.26
		c-0.36-0.64-0.46,0.71-0.93,0.3c-0.34-0.3-0.9-2.1-1.24-2.42c-0.33-0.31-0.39-0.82-0.72-1.15c-0.31-0.31-0.03,2.08-0.82,1.17
		c-0.41-0.46-1.21-2.41-1.6-2.86c-1.6-1.83-2.87-3.6-3.29-4.83C-2.79,7.83-4.1,3.57-4.1,3.57s1.23,10.72-0.3,14.22
		c-0.56,1.29-1.27,3.54-2.02,5.67c-0.1,0.29,0.09,0.98-0.01,1.27c-0.06,0.18-0.47,0.06-0.53,0.24c-0.26,0.8,0.04,2.78-0.18,3.55
		c-0.05,0.19-0.31-0.5-0.36-0.32c-0.08,0.27,0.04,1.71-0.04,1.97c-0.13,0.49-0.45-0.21-0.56,0.22c-0.1,0.39,0.19,1.59,0.11,1.91
		c-0.1,0.41-0.54-0.07-0.59,0.21L-8.89,35.2z"/>
	<path class="st2" d="M25.38-2.37c-0.3-0.14,0.04-0.82-0.34-0.98c-0.71-0.3-2.73-0.11-2.94-0.29c-0.54-0.49,0.76-1.43,0.21-1.96
		c-0.67-0.65-2.54-1.08-3.72-1.57C13.66-9.2-0.73-7.96,0.26-8.1c0.99-0.14,5-2.03,6.68-3.13c0.53-0.34,1.87-0.6,3.38-1.81
		c0.42-0.34-0.26-2.73,1.38-3.11c0.48-0.11,2.08-2.32,3.41-2.36c0.81-0.02,2.57-1.71,2.82-1.82c0.59-0.27-3.96-5.44-4.33-4.96
		c-0.89,1.15-2.25,0.27-2.99,0.51c-0.53,0.18-3.09,0.42-3.86,1.6c-0.71,1.08-2.86,0.46-3.2,0.55c-3.89,1.06-7.32,7.52-6.47,6.38
		c0.43-0.57,0.57-1.57,0.64-2.65c0.02-0.27,0.58-1.32,0.59-1.6c0.01-0.26-0.52,0.26-0.5,0c0.03-0.54,0.08-1.07,0.16-1.53
		c0.04-0.25-0.52-0.08-0.49-0.33c0.07-0.67-0.1-1.59-0.31-1.97c-0.1-0.19-0.85-1.33-0.93-1.46c-0.38-0.69-1.34-0.72-1.79-0.33
		c-0.23,0.2-0.19-0.6-0.39-0.4c-0.16,0.16-0.55,0.75-0.7,0.91c-0.27,0.29-0.44-0.01-0.65,0.29c-0.34,0.48-0.3,2.09-0.53,2.82
		c-0.08,0.27-0.5-0.26-0.56-0.03c-0.15,0.53-0.29,1.22-0.42,1.98c-0.05,0.28-0.5,0.17-0.54,0.46C-9.37-19.76-9-19-9.04-18.64
		c-0.12,1.14,0.04,2.4,0.08,3.32c0,0,1.54,4.38,0.18,4.78c-1.36,0.4-3.22-0.42-6.69-1.9c-1.58-0.67-3.53-0.35-5.36,0.21
		c-0.53,0.16-1.87,0.16-2.37,0.35c-0.41,0.15,0.6,0.36,0.23,0.5c-0.28,0.11-1.45-0.12-1.7-0.02c-0.24,0.09,0.06,0.55-0.17,0.62
		c-0.38,0.12-1.9,0.19-2.2,0.22c-0.42,0.04,0.39,0.47-0.01,0.64c-0.4,0.17-1.61,2.48-1.29,2.58c0.19,0.06,0.85-0.09,1.28,0.03
		c0.34,0.1-0.32,0.65-0.15,0.71c0.33,0.12,1.43,0.05,1.77,0.18c0.24,0.09-0.38,0.3-0.13,0.39c0.29,0.11,1.57-0.52,1.86-0.41
		c0.41,0.16-0.48,0.34-0.01,0.61c0.42,0.25,2.4,0.38,2.8,0.57c3.26,1.56,5.78,0.49,5.78,0.49s-3.42,1.55-7.4,2.67
		c-1.88,0.53-3.93,1.83-5.69,3.89c-0.26,0.31,3.77,9.43,4.85,8.66c0.59-0.42,2.48-1.7,3.03-2.14c3.29-2.67,7.24-7.41,7.24-7.41
		s0.12,3.32-2.13,5.97c-0.88,1.04-1.32,3.29-1.33,5.61c0,0.3,0.77-0.07,0.79,0.23c0.05,1.09-0.57,2.84-0.33,3.78
		c0.11,0.42,0.86-0.01,0.98,0.38c0.21,0.68,0.23,2.38,0.46,2.9c0.22,0.52,0.64-0.15,0.84,0.15l0.35,2.07
		c0.29,0.62,7.14,1.73,7.24,1.45c0.75-2.14,1.46-4.39,2.02-5.67c1.52-3.5,0.3-14.22,0.3-14.22s1.31,4.26,2.36,7.35
		c0.41,1.22,1.69,3,3.29,4.83c0.39,0.45,1.2,2.4,1.6,2.86c0.79,0.91,0.51-1.48,0.82-1.18c0.33,0.33,0.38,0.84,0.72,1.15
		c0,0,2.3,1.72,3.22,1.87c0.92,0.15,3.35-0.25,4.11-1.07c0.76-0.82,0.61-1.79,1.32-2.3c0.71-0.52,1.64-2.63,1.64-2.63
		c-0.34-1.02,1.68,0.1,1.4-0.56c-0.15-0.36-3.2-2.88-3.47-3.32c-0.24-0.38,1.3-0.13,0.99-0.54c-0.3-0.41-0.75-1.01-1.11-1.44
		c-0.69-0.85-1.34-1.55-2.14-2.43C7.58,2.55,3.93-0.83,3.93-0.83s0.93,0.17,3.89,2.48c1.41,1.1,4.19,2.01,7.21,2.6
		c0.7,0.14,2.13,1.11,2.84,1.21c0.8,0.11,0.48-1.21,1.26-1.15c0.09,0.01,2.46,1.7,2.75,1.94c0.3,0.25,0.16-0.73,0.48-0.46
		c0.38,0.33,0.1-1.22,0.57-1.23c0,0,2.95-1.73,2.97-2.83C25.92,0.62,25.38-2.37,25.38-2.37z"/>
	<path class="st3" d="M-8.28-8.17c-0.23,0.16-1.45-0.63-1.6-0.93c-0.14-0.31,1.04-1.36,1.35-1.51c0.31-0.14,2.13,0.16,2.93,0.62
		c0.8,0.47-0.49,1.93-0.92,2.09C-6.95-7.72-8.28-8.17-8.28-8.17z"/>
	<g>
		<g>
			<path class="st4" d="M-6.38-10c0.11-0.67,8.99-7.33,9.75-7.7c0.75-0.37,8.97-3.95,8.01-3.49c-0.95,0.47-5.75,2.63-6.51,3.25
				c-0.76,0.62-3.17,2.55-3.55,2.8c-0.82,0.54-2.37,1.6-3.5,2.15c-1.46,0.71-3.43,3.67-4.87,4.19C-7.48-8.65-6.38-10-6.38-10z"/>
		</g>
		<g>
			<path class="st3" d="M-6.38-10c0.11-0.67,8.99-7.33,9.75-7.7c0.75-0.37,8.97-3.95,8.01-3.49c-0.95,0.47-5.75,2.63-6.51,3.25
				c-0.76,0.62-3.17,2.55-3.55,2.8c-0.82,0.54-2.37,1.6-3.5,2.15c-1.46,0.71-3.43,3.67-4.87,4.19C-7.48-8.65-6.38-10-6.38-10z"/>
		</g>
	</g>
	<g>
		<g>
			<path class="st5" d="M-7.33-9.09c1.25,0.75,14.35,4.6,17.25,5.52c2.9,0.92,10.37,3.35,11.54,3.6c1.16,0.26-4.5-2.53-5.08-2.38
				c-0.58,0.15-5.41-2.83-6.45-2.35C8.9-4.21,6.29-5.48,5.49-6.01c-0.8-0.52-5.78-2-6.49-2.03c-0.42-0.02-1.43-0.63-2.37-1.07
				c-0.65-0.31,0.06-1.37-0.32-1.26C-4.61-10.11-7.33-9.09-7.33-9.09z"/>
		</g>
		<g>
			<path class="st3" d="M-7.33-9.09c1.25,0.75,14.35,4.6,17.25,5.52c2.9,0.92,10.37,3.35,11.54,3.6c1.16,0.26-4.5-2.53-5.08-2.38
				c-0.58,0.15-5.41-2.83-6.45-2.35C8.9-4.21,6.29-5.48,5.49-6.01c-0.8-0.52-5.78-2-6.49-2.03c-0.42-0.02-1.43-0.63-2.37-1.07
				c-0.65-0.31,0.06-1.37-0.32-1.26C-4.61-10.11-7.33-9.09-7.33-9.09z"/>
		</g>
	</g>
	<g>
		<path class="st6" d="M-3.03-3.84c-1.83-2.14-4.24-5.23-4.24-5.23c0.6,0.43,3.83,4,5.15,5.69C2.17,2.12,9.74,13.36,11.01,15.57
			c1.28,2.25,2.93,4.23,3.5,5.06c0.57,0.83,0.98,1.22,0.98,1.22S8.74,13.47,8,12.21c-0.74-1.26-4.14-5.98-5.51-8.16
			C1.64,2.7-0.86-1.31-3.03-3.84z"/>
		<path class="st6" d="M-6.97-8.73c0,0-0.64,6.84-0.52,8.39c0.1,1.35-0.26,15.25-0.79,17.15c-0.47,1.68-0.5,8.92-0.41,10.22
			c0.08,1.3-0.33,4.45-0.33,4.45s0.01-10.68,0.09-12.85c0.09-2.24,0.69-2.93,0.69-5.1c-0.01-2.17,0.24-11.46,0.39-13.2
			c0.16-1.74,0.37-9.1,0.58-9.38C-7.06-9.35-6.97-8.73-6.97-8.73z"/>
		<path class="st6" d="M-7.56-9.68c-0.17,0.25-3.47,4.03-6.34,6.57C-16.85-0.52-28.13,8.11-29.33,9.6
			c-1.25,1.54-4.26,4.85-4.26,4.85s4.91-4.9,6.78-6.33c1.87-1.43,9.92-8.09,12.37-10.05c2.76-2.22,5.46-5.95,6.16-6.44
			c1.01-0.7,1.56,0.28,1.31-0.37C-7.21-9.38-7.56-9.68-7.56-9.68z"/>
		<path class="st6" d="M-7.96-8.79C-8.69-8.76-18.2-8.04-20.08-8.3c-1.88-0.26-6.5,0.14-6.7,0.15c-0.2,0-1.1-0.12-1.36-0.01
			c-0.26,0.11,2.55-0.34,3.47-0.5c0.91-0.16,7.41,0.16,9.33-0.01c1.92-0.17,5.83-0.21,6.37-0.31c0.54-0.1,0.83-0.57,1.27-0.33
			C-7.27-9.07-7.96-8.79-7.96-8.79z"/>
		<path class="st6" d="M-7.71-9.31c-0.08,0.2,1.75-8.73,1.67-9.19c-0.17-1.04,0.38-6.04,0.32-6.42c-0.05-0.37,0.13,2.15,0.2,3.33
			c0.07,1.18-0.29,5.58-0.52,6.82c-0.23,1.25-1.1,5.79-1.31,5.87C-7.56-8.8-7.71-9.31-7.71-9.31z"/>
		<path class="st6" d="M-6.97-8.73c0.79-0.34,10.57-7.25,12.32-8.46c1.67-1.15,9.86-5.08,11.48-6.04c1.35-0.8-4.37,1.94-8.01,3.77
			c-3.63,1.83-9.31,5.63-10.44,6.55c-1.13,0.92-6.08,2.85-6.08,3.6C-7.71-8.56-6.97-8.73-6.97-8.73z"/>
		<path class="st6" d="M-6.74-9.09C-6.13-9.38,6.65-4.7,8.53-3.96C10.4-3.22,21.32-0.21,22.35,0.3c1.03,0.51,9.86,4.06,9.11,3.77
			c-0.75-0.3-6.82-2.63-8.13-2.94c-1.31-0.32-10.62-3.54-12.27-3.76C9.42-2.85,1.38-6.01-1.27-6.89C-3.93-7.78-6.74-9.09-6.74-9.09z
			"/>
	</g>
</symbol>
<use xlink:href="#Maple_Leaf"  width="73.1" height="70.72" x="-36.55" y="-35.52" transform="matrix(29.2333 0 0 -28.9932 2079.5 1641.6044)" style="overflow:visible;"/>
</svg>
