<?xml version="1.0" encoding="utf-8"?>
<!-- Generator: Adobe Illustrator 28.0.0, SVG Export Plug-In . SVG Version: 6.00 Build 0)  -->
<svg version="1.1" id="Layer_1" xmlns="http://www.w3.org/2000/svg" xmlns:xlink="http://www.w3.org/1999/xlink" x="0px" y="0px"
	 viewBox="0 0 4000 3500" style="enable-background:new 0 0 4000 3500;" xml:space="preserve">
<style type="text/css">
	.st0{fill:none;}
	.st1{fill:#8CA691;}
	.st2{fill:#7F9B68;}
	.st3{fill:#8EA57C;}
	.st4{fill:#6D9062;}
	.st5{fill:#5A865A;}
	.st6{fill:#53926A;}
	.st7{fill:#34643E;}
</style>
<symbol  id="Oak_Leaf" viewBox="-39.06 -33.74 78.11 67.48">
	<g>
		<g>
			<rect x="-38.94" y="-33.41" class="st0" width="77.59" height="67.13"/>
			<g>
				<g>
					<g>
						<g>
							<path class="st1" d="M-33.8-33.41c0,0,17.55,6.46,21.88,17.31c0,0-6.71-11.38-27.02-15.26
								C-38.94-31.36-40.3-34.79-33.8-33.41z"/>
						</g>
					</g>
				</g>
			</g>
			<g>
				<g>
					<path class="st2" d="M-17.04,13c2.27,2.71,5.84-8.29,8.75-9.42c-0.16-2.22,0.16-4.23,1.21-5.93c6.27,2.05,1.13,9.81,1.59,14.39
						c0.24,2.39,1.93,4.32,2.29,6.4c0.3,1.77-0.26,4.34,0.06,5.83c0.47,2.2-0.53,5.58,2.38,5.67c2.91,0.09,2-11.02,2.76-14.97
						c0.04-0.2,1.61,0.17,1.81-0.69c0.42-1.71-1.02-3.46-0.66-4.96C3.59,7.45,2.42,6.46,4,4.62c6.32,4.38,2.91,11.52,5.21,17.32
						c1.9,4.78,5.97,12.28,8.62,11.77c2.65-0.51,1.3-5.27,1.07-7.56c-0.3-2.9-2.89-2.14-3.44-4.88c-0.64-3.24,1.12-6.55,0.85-9.32
						c6.81-0.37,10.5,3.15,16.18,5.75c0.98,0.45,4.53,2.08,6.15,1.19c1.62-0.89-2.11-3.12-3.33-3.98C35.55,8.77,22.85,9.98,28,2.11
						c3.2-2.72,8.96,1.03,10.33-1.58c1.37-2.6-4.04-6.46-11.11-6.04C24.89-5.36,23-8.6,20.74-8.01c-1.43,0.37-4.7,2.98-5.9,2.97
						C6.81-5.1,23.6-14.39,21.9-17.12c-1.7-2.73-13.95,1.87-21.59,6.31c0.53-3.93,9.3-7.74,7.43-10.4
						c-1.87-2.66-14.37,1.53-15.88,2.53c-2.08-2.37-8.01-1.69-6.64,1.5c1.75,4.08-1.03,4.1,0.29,7.09
						C-11.24-2.7-19.31,10.29-17.04,13z"/>
				</g>
				<g>
					<path class="st3" d="M-17.04,13c2.27,2.71,5.84-8.29,8.75-9.42c-0.16-2.22,0.16-4.23,1.21-5.93c6.27,2.05,1.13,9.81,1.59,14.39
						c0.24,2.39,1.93,4.32,2.29,6.4c0.3,1.77-0.26,4.34,0.06,5.83c0.47,2.2-0.53,5.58,2.38,5.67c2.91,0.09,2-11.02,2.76-14.97
						c0.04-0.2,1.61,0.17,1.81-0.69c0.42-1.71-1.02-3.46-0.66-4.96C3.59,7.45,2.42,6.46,4,4.62c6.32,4.38,2.91,11.52,5.21,17.32
						c1.9,4.78,5.97,12.28,8.62,11.77c2.65-0.51,1.3-5.27,1.07-7.56c-0.3-2.9-2.89-2.14-3.44-4.88c-0.64-3.24,1.12-6.55,0.85-9.32
						c6.81-0.37,10.5,3.15,16.18,5.75c0.98,0.45,4.53,2.08,6.15,1.19c1.62-0.89-2.11-3.12-3.33-3.98C35.55,8.77,22.85,9.98,28,2.11
						c3.2-2.72,8.96,1.03,10.33-1.58c1.37-2.6-4.04-6.46-11.11-6.04C24.89-5.36,23-8.6,20.74-8.01c-1.43,0.37-4.7,2.98-5.9,2.97
						C6.81-5.1,23.6-14.39,21.9-17.12c-1.7-2.73-13.95,1.87-21.59,6.31c0.53-3.93,9.3-7.74,7.43-10.4
						c-1.87-2.66-14.37,1.53-15.88,2.53c-2.08-2.37-8.01-1.69-6.64,1.5c1.75,4.08-1.03,4.1,0.29,7.09
						C-11.24-2.7-19.31,10.29-17.04,13z"/>
					<path class="st4" d="M17.44,31.59 M11.22,21.15c-0.71-1.79-0.78-3.86-0.84-6.04c-0.13-4.16-0.27-8.87-5.15-12.26
						C4.33,2.22,3.09,2.38,2.37,3.21C1.22,4.55,0.98,5.75,0.98,6.72c0,0.38,0.04,0.71,0.07,1.01C1.08,7.99,1.09,8.2,1.09,8.39
						c0,0.16-0.01,0.3-0.05,0.46c-0.08,0.34-0.11,0.67-0.11,1c0,0.91,0.26,1.75,0.48,2.45c0.06,0.2,0.12,0.41,0.18,0.61
						c-1.25,0.33-1.63,1.23-1.72,1.68c-0.27,1.4-0.35,3.44-0.43,5.61c-0.05,1.42-0.14,3.53-0.33,5.24c-0.06-0.71-0.15-1.6-0.15-1.6
						c-0.04-0.18-0.05-0.44-0.05-0.74c0-0.45,0.03-0.99,0.06-1.49c0.04-0.61,0.07-1.23,0.07-1.85c0-0.56-0.03-1.12-0.12-1.66
						c-0.22-1.25-0.74-2.34-1.24-3.39c-0.48-1-0.93-1.95-1.03-2.87c-0.01-0.13-0.02-0.27-0.02-0.41c0-1.1,0.36-2.59,0.71-4.04
						c0.38-1.59,0.85-3.5,0.85-5.35c0-2.69-0.98-5.24-4.61-6.43c-0.95-0.31-1.99,0.07-2.51,0.92c-1.05,1.69-1.56,3.65-1.57,5.95
						c-1.3,1.14-2.41,3.01-3.65,5.11c-0.17,0.29-0.38,0.63-0.59,0.98c0.26-0.95,0.56-1.94,0.82-2.82c1.08-3.57,2.35-7.73,2.35-11.59
						c0-1.79-0.27-3.52-0.97-5.09c-0.12-0.29-0.18-0.46-0.18-0.62c0-0.19,0.07-0.37,0.19-0.71c0.26-0.72,0.49-1.49,0.49-2.45
						c0-0.84-0.21-1.84-0.69-3.05c0.7-0.26,2.32-0.18,2.96,0.54c0.69,0.79,1.91,0.93,2.8,0.38c1.65-1,9.53-3.22,12.33-3.02
						c-0.57,0.63-1.5,1.46-2.2,2.07c-2.18,1.9-4.64,4.06-5,6.72C-1.84-11-1.85-10.9-1.85-10.8c0,0.71,0.36,1.39,0.96,1.79
						c0.69,0.46,1.57,0.49,2.29,0.07c6.85-3.98,14.35-6.52,17.57-6.81c-0.91,0.96-2.25,2.15-3.2,2.99c-3,2.64-5.28,4.65-5.28,6.73
						c0,0.34,0.06,0.68,0.19,1.03c0.78,2.1,3.32,2.12,4.15,2.12c1.21,0.01,2.44-0.7,4.34-1.87c0.66-0.4,1.76-1.08,2.12-1.18
						c0.23-0.06,1.19,0.6,1.6,0.88c1.17,0.8,2.62,1.8,4.47,1.69c4.8-0.29,8.06,1.64,8.85,2.7c-0.52-0.01-1.3-0.11-1.87-0.19
						c-2.26-0.31-5.35-0.73-7.73,1.3c-0.16,0.13-0.29,0.29-0.41,0.46c-1.06,1.62-1.59,3.09-1.59,4.47c0,0.43,0.05,0.85,0.15,1.26
						c0.64,2.55,2.97,3.83,5.03,4.96c2.28,1.25,3.38,1.98,3.38,3.15c0,0.02,0,0.12,0,0.15c0,0.28,0.09,0.54,0.19,0.79
						c-0.49-0.25-3.98-2.06-3.98-2.06c-3.7-2.04-7.53-4.16-13.17-3.85c-0.59,0.03-1.14,0.3-1.52,0.75
						c-0.34,0.39-0.52,0.89-0.52,1.41c0,0.07,0,0.14,0.01,0.21c0.01,0.13,0.02,0.26,0.02,0.4c0,0.84-0.21,1.85-0.44,2.91
						c-0.28,1.32-0.58,2.76-0.58,4.28c0,0.63,0.05,1.28,0.18,1.93c0.43,2.19,1.81,3.13,2.64,3.69c0.66,0.45,0.71,0.49,0.77,0.99
						l0.22,1.53c0.11,0.7,0.33,2.06,0.33,3c0,0.17-0.04,0.26-0.06,0.4C15.82,30.2,13.15,25.99,11.22,21.15z"/>
					<path class="st5" d="M6.47,1.07C4.65-0.19,2.18,0.13,0.73,1.8C0.56,2.01,0.45,2.21,0.3,2.41c0-0.13,0.04-0.25,0.04-0.38
						c0-3.38-1.22-6.9-6.07-8.49C-7-6.87-8.33-6.65-9.4-5.96c-0.01-1.94-0.33-3.84-1.07-5.63c0.33-0.94,0.6-1.95,0.6-3.16
						c0-0.06-0.02-0.14-0.02-0.21c1.36,0.53,2.98,0.59,4.13-0.12l-0.14,0.09c0.8-0.43,2.69-1.07,4.71-1.64
						c-1.37,1.5-2.51,3.17-2.79,5.24C-4-11.19-4.01-10.99-4.01-10.8c0,1.43,0.71,2.78,1.92,3.59c1.37,0.92,3.15,0.97,4.57,0.14
						c2.78-1.61,5.71-2.99,8.4-4.07C9.35-9.51,8.31-7.88,8.31-6.07c0,0.59,0.11,1.19,0.34,1.82c0.59,1.59,2.15,3.5,6.16,3.53
						c1.89,0.01,3.55-1,5.48-2.18c0.29-0.18,0.66-0.4,0.99-0.6c0.18,0.12,0.38,0.24,0.38,0.24c0.93,0.64,2.21,1.51,3.83,1.88
						c-0.1,0.07-0.2,0.12-0.29,0.2c-0.31,0.27-0.59,0.58-0.81,0.92c-1.29,1.97-1.94,3.87-1.94,5.67c0,0.6,0.07,1.19,0.22,1.76
						c0.11,0.45,0.26,0.87,0.44,1.26c-2.05-0.6-4.34-0.94-7.02-0.8c-1.18,0.06-2.28,0.61-3.04,1.5c-0.41,0.47-0.66,1.03-0.83,1.62
						C11.74,7.42,10.44,3.83,6.47,1.07z M-10.05-0.33c0.07-0.03,0.13-0.09,0.2-0.11C-9.92-0.42-9.98-0.35-10.05-0.33
						C-10.05-0.33-10.05-0.33-10.05-0.33z"/>
				</g>
			</g>
			<g>
				<path class="st6" d="M13.32,27.63"/>
			</g>
			<g>
				<g>
					<g>
						<path class="st7" d="M-7.89-11.61c-0.89,2.17-1.38,5.04-1.85,7.83c-0.32,1.89-0.63,3.68-1.04,5.17
							c-0.75,2.69-2.66,5.75-4.35,8.45c-0.48,0.78-0.94,1.5-1.35,2.2l-0.09-0.05c0.41-0.69,0.87-1.42,1.35-2.2
							c1.69-2.69,3.59-5.75,4.34-8.42c0.41-1.48,0.72-3.26,1.04-5.16c0.47-2.79,0.96-5.67,1.86-7.85L-7.89-11.61z"/>
					</g>
					<g>
						<path class="st7" d="M0.89-3.86c1.1,2.28-0.25,5.69-1.68,9.31c-1.13,2.86-2.3,5.82-2.14,8.17c0.14,2.08,0.57,4.52,1.03,7.1
							c0.56,3.18,1.15,6.47,1.19,9.23l-0.1,0C-0.86,27.2-1.44,23.91-2,20.74c-0.46-2.58-0.89-5.03-1.03-7.11
							c-0.16-2.37,1.02-5.34,2.15-8.21c1.42-3.6,2.76-6.99,1.68-9.23L0.89-3.86z"/>
					</g>
					<g>
						<path class="st7" d="M12.37,3.29c0.02,2.24-0.22,4.45-0.45,6.58c-0.43,3.96-0.83,7.71,0.34,11.48
							c0.43,1.38,1.42,2.87,2.47,4.45c1.6,2.42,3.26,4.92,3.09,7.3l-0.1-0.01c0.17-2.34-1.47-4.82-3.07-7.23
							c-1.05-1.59-2.05-3.09-2.48-4.48c-1.17-3.79-0.77-7.55-0.34-11.52c0.23-2.13,0.47-4.33,0.45-6.57H12.37z"/>
					</g>
					<g>
						<path class="st7" d="M-14.25-19.27c2.08,1.33,4.19,4.31,6.04,6.95c0.84,1.19,1.63,2.31,2.36,3.21c2.49,3.04,6.13,5.06,9.66,7
							C5.82-1,7.9,0.15,9.73,1.48c1.11,0.8,2.3,1.45,3.45,2.07c2.03,1.1,3.94,2.14,5.47,3.97c2.48,2.96,4.92,4.26,8.31,5.51
							c0.77,0.29,1.57,0.53,2.34,0.76c1.62,0.49,3.29,1,4.78,1.91c0.59,0.36,1.19,0.87,1.77,1.35c0.94,0.79,1.83,1.54,2.57,1.59
							l-0.01,0.1c-0.77-0.06-1.67-0.82-2.62-1.62c-0.58-0.49-1.17-0.98-1.76-1.34c-1.48-0.91-3.15-1.41-4.76-1.9
							c-0.78-0.23-1.58-0.48-2.35-0.76c-3.4-1.25-5.86-2.56-8.35-5.54c-1.52-1.82-3.43-2.85-5.44-3.95
							c-1.15-0.62-2.34-1.27-3.46-2.08c-1.82-1.32-3.9-2.47-5.91-3.58C0.23-3.98-3.42-6-5.93-9.05c-0.73-0.9-1.53-2.02-2.37-3.21
							c-1.85-2.62-3.94-5.6-6.01-6.92L-14.25-19.27z"/>
					</g>
					<g>
						<path class="st7" d="M13.15,3.59c5.24-0.02,8.35-1.5,11.1-2.8c1.83-0.87,3.56-1.7,5.66-1.94c2.33-0.27,4.88,0.2,8.04,1.47
							l-0.04,0.09c-3.14-1.27-5.68-1.73-7.99-1.46c-2.09,0.24-3.81,1.06-5.63,1.93c-2.75,1.31-5.87,2.8-11.14,2.81V3.59z"/>
					</g>
					<g>
						<path class="st7" d="M1.42-3.54c2.96,1.12,5.23-1.62,7.42-4.27c1.38-1.67,2.81-3.4,4.39-4.12c2.71-1.25,7.21-3.75,8.63-5.21
							l0.07,0.07c-1.43,1.47-5.95,3.99-8.66,5.24c-1.56,0.72-2.98,2.44-4.35,4.1C6.71-5.07,4.42-2.3,1.39-3.44L1.42-3.54z"/>
					</g>
					<g>
						<path class="st7" d="M-9-13.47c3.5,0.55,6.52-1.72,9.44-3.92c2.31-1.74,4.71-3.53,7.29-3.86l0.01,0.1
							c-2.56,0.33-4.94,2.11-7.24,3.84c-2.94,2.21-5.98,4.49-9.52,3.93L-9-13.47z"/>
					</g>
				</g>
			</g>
		</g>
	</g>
</symbol>
<use xlink:href="#Oak_Leaf"  width="78.11" height="67.48" x="-39.06" y="-33.74" transform="matrix(25.7194 0 0 -25.957 1989.5382 1676.5046)" style="overflow:visible;"/>
</svg>
